<svg width="490" height="97" viewBox="0 0 490 97" fill="none" xmlns="http://www.w3.org/2000/svg">
<path d="M20.1913 74.6623C16.9241 74.6623 13.8856 74.3684 11.0758 73.7806C8.266 73.1928 5.91362 72.213 4.01865 70.8414C2.71177 69.8617 1.69894 68.6207 0.980158 67.1185C0.326719 65.6162 0 64.0814 0 62.5138C0 60.5544 0.555423 58.7255 1.66627 57.0273C2.77712 55.3292 4.5414 54.1862 6.95912 53.5983C7.28584 53.533 7.57989 53.5004 7.84127 53.5004C8.16799 53.435 8.46203 53.4024 8.72341 53.4024C10.0303 53.4024 11.1738 53.6963 12.154 54.2841C13.1995 54.872 13.9182 55.5578 14.3103 56.3415C14.0489 56.5375 13.6895 56.8967 13.2321 57.4192C12.7747 57.8764 12.4807 58.2683 12.35 58.5949C11.3698 60.2278 10.8798 61.8606 10.8798 63.4935C10.8798 65.7142 11.7292 67.543 13.4282 68.9799C15.1925 70.3516 17.4795 71.0374 20.2893 71.0374C22.8377 71.0374 25.2227 70.4169 27.4444 69.1759C29.7315 67.8696 31.5611 66.1388 32.9333 63.9834C34.3709 61.828 35.0897 59.346 35.0897 56.5375C35.0897 54.4474 34.5996 52.2267 33.6194 49.8754C32.77 47.8506 31.5938 46.0545 30.0909 44.4869C28.6533 42.9194 27.2811 41.4498 25.9742 40.0782C24.2099 38.184 22.511 36.3552 20.8774 34.5917C19.3091 32.7629 18.0022 30.8035 16.9567 28.7134C15.9766 26.558 15.4865 24.1414 15.4865 21.4634C15.4865 18.9162 16.0093 16.4342 17.0548 14.0176C18.1656 11.6009 19.7339 9.5435 21.7595 7.84531C24.0465 5.88587 26.6603 4.51426 29.6008 3.73048C32.5413 2.9467 35.6124 2.55482 38.8143 2.55482C42.8002 2.55482 45.9367 3.07733 48.2238 4.12237C50.5762 5.10209 52.2424 6.37573 53.2226 7.94329C54.2681 9.51084 54.7908 11.1764 54.7908 12.9399C54.7908 14.638 54.3988 16.2709 53.6147 17.8385C52.8959 19.406 51.883 20.745 50.5762 21.8553C49.2693 22.9004 47.8317 23.5535 46.2635 23.8148C46.0021 23.8801 45.7407 23.9128 45.4793 23.9128C45.218 23.9128 44.9239 23.9128 44.5972 23.9128C43.1596 23.9128 41.8854 23.5862 40.7746 22.933C39.7291 22.2799 39.2063 21.1695 39.2063 19.602C39.2063 19.406 39.2063 19.1774 39.2063 18.9162C39.2717 18.6549 39.337 18.3937 39.4024 18.1324C40.5786 18.1324 41.7874 17.7078 43.0289 16.8588C44.2705 16.0097 45.0873 15.0626 45.4793 14.0176C45.8061 13.1685 45.9694 12.3847 45.9694 11.6662C45.9694 9.90273 45.1526 8.53112 43.519 7.5514C41.9508 6.50636 40.0885 5.98384 37.9321 5.98384C35.3837 5.98384 33.0967 6.53901 31.071 7.64937C29.1107 8.69441 27.5751 10.0987 26.4643 11.8622C25.3534 13.5604 24.798 15.4218 24.798 17.4466C24.798 19.4713 25.4188 21.4308 26.6603 23.3249C27.7058 24.8272 29.0127 26.3947 30.5809 28.0276C32.1492 29.5951 33.7501 31.13 35.3837 32.6323C37.0173 34.0692 38.4222 35.4082 39.5984 36.6491C42.2775 39.2617 44.2051 41.9396 45.3813 44.6829C46.5575 47.3608 47.1456 50.006 47.1456 52.6186C47.1456 55.6231 46.4268 58.4643 44.9893 61.1422C43.617 63.7548 41.6894 66.0734 39.2063 68.0982C36.7233 70.123 33.8481 71.7232 30.5809 72.8988C27.3137 74.0745 23.8505 74.6623 20.1913 74.6623Z" fill="#FF6610"/>
<path d="M54.0496 73.2907C52.3507 73.2907 50.9131 72.4743 49.7369 70.8414C48.6261 69.1432 48.2013 66.7919 48.4627 63.7874C48.5934 61.8933 49.0835 59.4767 49.9329 56.5375C50.7824 53.5983 51.8279 50.6265 53.0694 47.622C54.3763 44.5522 55.6832 41.9723 56.9901 39.8822C58.689 37.2043 60.584 35.4735 62.675 34.6897C64.766 33.9059 67.4451 33.514 70.7123 33.514C70.9083 33.514 71.0063 33.612 71.0063 33.8079C71.0063 34.1345 70.8103 34.4937 70.4182 34.8856C69.5034 35.6694 68.4579 37.041 67.2817 39.0005C66.1709 40.8946 65.0927 43.0173 64.0472 45.3687C63.0017 47.72 62.0869 49.9734 61.3028 52.1287C61.1721 52.5859 60.878 53.4677 60.4206 54.774C59.9632 56.0803 59.5385 57.5172 59.1464 59.0848C58.7544 60.587 58.5583 61.9913 58.5583 63.2976C58.5583 64.3426 58.7544 65.2244 59.1464 65.9428C59.5385 66.596 60.1919 66.9225 61.1067 66.9225C62.3483 66.8572 63.6878 66.1061 65.1254 64.6692C66.563 63.1669 68.0005 61.2728 69.4381 58.9868C70.8756 56.7008 72.2479 54.3821 73.5547 52.0308C74.8616 49.6141 76.0051 47.4587 76.9853 45.5646C78.0308 43.6052 78.7823 42.2336 79.2397 41.4498C80.2198 39.8822 81.2653 38.5433 82.3762 37.4329C83.487 36.2572 84.7612 35.6694 86.1988 35.6694C86.7215 35.6694 87.5057 35.7021 88.5512 35.7674C89.5967 35.7674 90.5768 35.7674 91.4916 35.7674C92.4718 35.7674 93.1252 35.7347 93.452 35.6694C93.1906 35.8 92.7985 36.094 92.2758 36.5512C91.753 36.9431 91.361 37.4003 91.0996 37.9228C90.0541 39.9475 89.0086 42.0703 87.9631 44.291C86.9176 46.5117 85.8721 49.1243 84.8266 52.1287C84.6959 52.5859 84.3692 53.4677 83.8464 54.774C83.389 56.0803 82.9643 57.5172 82.5722 59.0848C82.1801 60.587 81.9841 61.9913 81.9841 63.2976C81.9841 64.8651 82.2455 65.9755 82.7682 66.6286C83.3563 67.2818 84.0751 67.6084 84.9246 67.6084C86.1008 67.6084 87.4077 67.1511 88.8452 66.2367C90.3481 65.257 91.6877 64.0813 92.8639 62.7097C94.8895 60.3584 96.4905 57.9091 97.6666 55.3618C98.9082 52.7492 99.7576 50.7898 100.215 49.4835C100.084 48.765 99.9537 47.9813 99.823 47.1322C99.7576 46.2831 99.725 45.434 99.725 44.5849C99.725 43.4092 99.823 42.2009 100.019 40.9599C100.28 39.7189 100.64 38.5106 101.097 37.3349C101.947 35.2449 103.156 33.9712 104.724 33.514C104.985 33.4487 105.214 33.416 105.41 33.416C105.671 33.3507 105.933 33.3181 106.194 33.3181C107.436 33.3181 108.252 33.7426 108.644 34.5917C109.102 35.4408 109.331 36.4532 109.331 37.6289C109.331 38.8045 109.2 39.9802 108.938 41.1559C108.677 42.2662 108.416 43.148 108.154 43.8011C107.697 45.0421 107.174 46.2504 106.586 47.4261C105.998 48.5364 105.443 49.6468 104.92 50.7571C104.92 51.149 105.018 51.7042 105.214 52.4227C105.933 55.5578 107.534 57.1253 110.017 57.1253C111.52 57.1253 113.088 56.4069 114.721 54.9699C115.636 54.1862 116.453 53.2064 117.172 52.0308C117.956 50.7898 118.642 49.6468 119.23 48.6017C119.557 48.0792 119.753 47.9486 119.818 48.2099C119.949 48.4711 120.014 48.8957 120.014 49.4835C120.014 50.1366 119.949 50.8878 119.818 51.7369C119.688 52.5859 119.459 53.2718 119.132 53.7943C118.152 55.4925 117.139 56.7987 116.094 57.7132C115.048 58.5622 113.872 59.2481 112.565 59.7706C112.042 59.9665 111.487 60.1298 110.899 60.2604C110.311 60.3911 109.755 60.4564 109.233 60.4564C107.664 60.4564 106.227 60.0318 104.92 59.1827C103.678 58.2683 102.763 56.8641 102.175 54.9699L101.881 53.9902C101.228 55.1006 100.476 56.3742 99.627 57.8111C98.7775 59.2481 97.9607 60.5543 97.1766 61.73C96.4578 62.9057 95.9024 63.7548 95.5103 64.2773C93.2886 67.0858 90.8709 69.3065 88.2571 70.9394C85.7087 72.5723 82.9969 73.3887 80.1218 73.3887C79.7951 73.3887 79.4684 73.3887 79.1416 73.3887C78.8149 73.3887 78.4882 73.356 78.1615 73.2907C75.6784 72.9642 74.0122 71.8538 73.1627 69.9597C72.3132 68.0002 71.8885 66.0408 71.8885 64.0814C71.8885 63.3629 71.9212 62.6771 71.9865 62.0239C72.1172 61.3055 72.2152 60.7176 72.2805 60.2604C71.3004 61.632 70.2549 62.9057 69.144 64.0814C68.0985 65.257 67.0204 66.4327 65.9095 67.6084C63.4264 70.0903 61.2048 71.6579 59.2444 72.311C57.2841 72.9642 55.5525 73.2907 54.0496 73.2907Z" fill="#FF6610"/>
<path d="M137.339 25.6763C135.64 25.0884 134.791 23.9781 134.791 22.3452C134.791 20.843 135.379 19.3081 136.555 17.7405C137.797 16.1076 139.136 15.0626 140.574 14.6054C140.901 14.4748 141.162 14.4094 141.358 14.4094C141.619 14.4094 141.881 14.4094 142.142 14.4094C143.253 14.4094 144.168 14.736 144.887 15.3892C145.605 16.0423 145.965 16.7934 145.965 17.6425C145.965 18.8182 145.344 19.7979 144.102 20.5817C143.122 20.4511 142.175 20.6797 141.26 21.2675C140.345 21.8553 139.528 22.5738 138.81 23.4229C138.156 24.272 137.666 25.0231 137.339 25.6763ZM120.481 73.2907C119.631 73.2907 118.814 73.0948 118.03 72.7029C117.246 72.3763 116.593 71.6905 116.07 70.6455C115.351 69.0779 114.992 67.2165 114.992 65.0611C114.992 62.7097 115.351 60.0971 116.07 57.2233C116.789 54.2841 117.736 51.2796 118.912 48.2099C119.37 47.0995 119.958 45.7279 120.677 44.095C121.395 42.4622 122.245 40.8293 123.225 39.1964C124.205 37.5635 125.316 36.2246 126.558 35.1796C127.864 34.0692 129.269 33.514 130.772 33.514C131.491 33.514 132.504 33.5467 133.811 33.612C135.118 33.6773 136.065 33.6773 136.653 33.612C136.261 33.8733 135.804 34.3958 135.281 35.1796C134.758 35.9633 134.268 36.7798 133.811 37.6289C133.353 38.4126 132.994 39.0331 132.733 39.4903C131.034 42.8867 129.433 46.2504 127.93 49.5815C126.427 52.9125 125.283 56.1129 124.499 59.1827C124.369 59.7053 124.271 60.2278 124.205 60.7503C124.14 61.2728 124.107 61.7627 124.107 62.2199C124.107 64.114 124.728 65.0611 125.969 65.0611C126.492 65.0611 127.048 64.9304 127.636 64.6692C128.289 64.3426 129.041 63.8527 129.89 63.1996C131.393 62.0239 132.7 60.685 133.811 59.1827C135.118 57.4846 136.359 55.6884 137.535 53.7943C138.712 51.8348 139.724 50.0387 140.574 48.4058C140.901 47.8833 141.129 47.622 141.26 47.622C141.652 47.622 141.848 48.1772 141.848 49.2875C141.848 49.8101 141.75 50.4306 141.554 51.149C141.423 51.8022 141.195 52.4227 140.868 53.0105C139.953 54.578 138.875 56.3089 137.633 58.203C136.392 60.0971 135.118 61.926 133.811 63.6895C132.896 64.9304 131.687 66.3021 130.184 67.8043C128.681 69.3065 127.08 70.6128 125.381 71.7232C123.682 72.7682 122.049 73.2907 120.481 73.2907Z" fill="#FF6610"/>
<path d="M126.244 97C122.846 97 120.428 96.1836 118.99 94.5507C117.553 92.9178 116.834 91.1543 116.834 89.2602C116.834 88.0845 117.095 86.9742 117.618 85.9291C118.076 84.8841 118.729 84.133 119.579 83.6758C120.232 83.3492 120.82 83.1859 121.343 83.1859C122.062 83.1859 122.715 83.4145 123.303 83.8717C123.891 84.3289 124.185 84.9494 124.185 85.7332C124.185 85.9291 124.185 86.0924 124.185 86.2231C124.12 86.419 124.055 86.615 123.989 86.8109C123.597 87.1375 123.238 87.6273 122.911 88.2805C122.519 88.9336 122.258 89.5868 122.127 90.2399C122.062 90.3705 122.029 90.5338 122.029 90.7298C122.029 90.9257 122.029 91.089 122.029 91.2197C122.029 92.0687 122.29 92.7872 122.813 93.375C123.336 93.9629 123.924 94.2568 124.577 94.2568C126.276 94.2568 127.91 93.6363 129.478 92.3953C131.046 91.1543 132.484 89.5868 133.791 87.6926C135.163 85.8638 136.372 84.0024 137.417 82.1082C138.463 80.2141 139.312 78.5812 139.966 77.2096C142.972 71.1353 145.814 64.7998 148.493 58.203C151.238 51.6062 153.819 45.1727 156.236 38.9025H153.492C152.316 38.9025 151.074 39.0984 149.767 39.4903C148.526 39.8822 147.546 40.7313 146.827 42.0376C145.781 44.0624 144.638 46.2178 143.396 48.5038C142.22 50.7898 140.881 53.0758 139.378 55.3618C139.116 55.819 138.888 56.0476 138.692 56.0476C138.365 56.0476 138.202 55.5578 138.202 54.578C138.202 53.4024 138.398 52.4227 138.79 51.6389C139.77 50.006 140.717 48.2099 141.632 46.2504C142.612 44.2257 143.494 42.2989 144.279 40.4701C145.063 38.6412 145.651 37.139 146.043 35.9633C146.37 35.0489 146.696 34.4284 147.023 34.1019C147.415 33.7753 148.199 33.6773 149.375 33.8079L158.001 34.4937C158.785 32.4037 159.536 30.3789 160.255 28.4195C161.039 26.3947 161.791 24.4679 162.509 22.6391C164.012 18.8509 165.744 15.2259 167.704 11.7642C169.665 8.30252 172.082 5.49398 174.957 3.33859C177.898 1.11789 181.459 0.00753612 185.641 0.00753612C188.059 -0.0577778 190.117 0.301455 191.816 1.08523C193.515 1.86901 194.757 3.33859 195.541 5.49398C195.737 6.08181 195.835 6.76762 195.835 7.5514C195.835 8.85769 195.508 10.1966 194.855 11.5683C194.201 12.9399 193.319 13.8869 192.208 14.4094C191.882 14.6054 191.522 14.736 191.13 14.8013C190.738 14.8667 190.379 14.8993 190.052 14.8993C189.202 14.8993 188.451 14.6707 187.798 14.2135C187.144 13.7563 186.817 13.1032 186.817 12.2541C186.817 11.8622 186.915 11.4376 187.111 10.9804C188.288 10.1313 189.104 8.92301 189.562 7.35545C189.627 7.09419 189.66 6.86559 189.66 6.66965C189.725 6.4737 189.758 6.27776 189.758 6.08181C189.758 4.77552 189.268 3.82845 188.288 3.24062C187.896 2.91404 187.471 2.7181 187.013 2.65279C186.556 2.52216 186.099 2.45684 185.641 2.45684C183.485 2.45684 181.557 3.46922 179.858 5.49398C177.767 7.91062 175.84 10.8824 174.075 14.4094C172.376 17.9364 170.841 21.5288 169.469 25.1864C168.162 28.844 166.986 32.0771 165.94 34.8856C168.619 34.8856 171.2 34.853 173.683 34.7877C176.232 34.657 178.421 34.4937 180.25 34.2978C182.08 34.0365 183.191 33.7753 183.583 33.514C183.125 34.755 182.341 35.7347 181.23 36.4532C180.185 37.1717 178.584 37.6942 176.428 38.0207C174.925 38.282 173.128 38.4779 171.037 38.6086C168.946 38.6739 166.789 38.7392 164.568 38.8045L161.725 47.0342C160.811 49.6468 159.7 52.6839 158.393 56.1456C157.151 59.6073 155.714 63.2323 154.08 67.0205C152.447 70.7435 150.617 74.3684 148.591 77.8954C146.631 81.4224 144.475 84.6228 142.122 87.4967C139.835 90.4359 137.352 92.7545 134.673 94.4527C132.059 96.1509 129.249 97 126.244 97Z" fill="#FF6610"/>
<path d="M179.713 73.2907C177.818 73.2907 176.38 72.5396 175.4 71.0374C174.943 70.3189 174.616 69.4698 174.42 68.4901C174.224 67.5104 174.126 66.498 174.126 65.453C174.126 64.4079 174.191 63.3629 174.322 62.3178C174.453 61.2075 174.616 60.1298 174.812 59.0848C175.139 57.3866 175.498 55.8517 175.89 54.4801C176.348 53.0431 176.805 51.6715 177.262 50.3652V50.2673C176.74 51.247 176.086 52.3247 175.302 53.5004C174.518 54.6107 173.963 55.4271 173.636 55.9497C173.178 56.6681 172.819 57.0273 172.558 57.0273C172.296 57.0273 172.166 56.7334 172.166 56.1456C172.166 54.8393 172.558 53.4024 173.342 51.8348C173.864 50.7898 174.583 49.4508 175.498 47.818C176.413 46.1198 177.36 44.291 178.341 42.3315C179.321 40.3721 180.17 38.4779 180.889 36.6491H174.322C173.995 36.6491 173.93 36.3879 174.126 35.8654C174.322 35.3428 174.616 34.853 175.008 34.3958C175.4 33.8733 175.694 33.612 175.89 33.612H183.339C184.058 31.9138 184.875 30.085 185.79 28.1256C186.77 26.1661 187.848 24.3373 189.024 22.6391C190.266 20.8756 191.605 19.4387 193.043 18.3283C194.48 17.218 196.016 16.6628 197.65 16.6628C198.368 16.6628 199.251 16.6628 200.296 16.6628C201.407 16.6628 202.093 16.6302 202.354 16.5648C200.982 17.4792 199.381 19.3081 197.552 22.0513C195.722 24.7292 193.729 28.5828 191.573 33.612H201.472C201.668 33.612 201.603 33.8733 201.276 34.3958C200.95 34.853 200.525 35.3428 200.002 35.8654C199.545 36.3879 199.087 36.6491 198.63 36.6491H190.2C189.351 38.8045 188.404 41.1559 187.358 43.7031C186.378 46.2504 185.463 48.765 184.614 51.247C183.829 53.6636 183.241 55.8843 182.849 57.9091C182.588 59.1501 182.457 60.2931 182.457 61.3381C182.457 63.8201 183.241 65.0611 184.81 65.0611C185.855 65.0611 187.097 64.5386 188.534 63.4935C189.972 62.4485 191.409 61.0116 192.847 59.1827C194.154 57.4846 195.395 55.6557 196.571 53.6963C197.813 51.7369 198.859 49.9407 199.708 48.3078C199.969 47.8506 200.198 47.622 200.394 47.622C200.786 47.622 200.982 48.1445 200.982 49.1896C200.982 49.7121 200.884 50.3326 200.688 51.051C200.557 51.7042 200.296 52.3573 199.904 53.0105C198.989 54.578 197.911 56.3089 196.67 58.203C195.428 60.0318 194.154 61.8606 192.847 63.6895C191.932 64.8651 190.723 66.2041 189.22 67.7063C187.783 69.2086 186.214 70.5149 184.516 71.6252C182.882 72.7356 181.281 73.2907 179.713 73.2907Z" fill="#FF6610"/>
<path d="M214.491 38.0207C214.491 31.228 215.896 25.1864 218.706 19.8959C221.581 14.5401 225.632 10.3926 230.86 7.45343C236.087 4.44894 242.099 2.9467 248.895 2.9467C257.52 2.9467 264.773 5.26538 270.654 9.90273C276.535 14.4748 280.325 20.7123 282.024 28.6154H261.343C260.101 26.0028 258.37 24.0107 256.148 22.6391C253.992 21.2675 251.476 20.5817 248.601 20.5817C244.157 20.5817 240.596 22.1819 237.917 25.3823C235.303 28.5174 233.996 32.7302 233.996 38.0207C233.996 43.3766 235.303 47.6547 237.917 50.8551C240.596 53.9902 244.157 55.5578 248.601 55.5578C251.476 55.5578 253.992 54.872 256.148 53.5004C258.37 52.1287 260.101 50.1366 261.343 47.5241H282.024C280.325 55.4271 276.535 61.6974 270.654 66.3347C264.773 70.9067 257.52 73.1928 248.895 73.1928C242.099 73.1928 236.087 71.7232 230.86 68.784C225.632 65.7795 221.581 61.632 218.706 56.3415C215.896 50.9857 214.491 44.8788 214.491 38.0207Z" fill="black"/>
<path d="M352.969 3.63251V72.7029H333.758V44.9768H310.332V72.7029H291.121V3.63251H310.332V29.5951H333.758V3.63251H352.969Z" fill="black"/>
<path d="M407.678 61.4361H383.174L379.45 72.7029H359.258L384.448 3.63251H406.6L431.692 72.7029H411.403L407.678 61.4361ZM402.875 46.7403L395.426 24.4026L388.075 46.7403H402.875Z" fill="black"/>
<path d="M490 3.63251V18.9162H471.573V72.7029H452.362V18.9162H434.131V3.63251H490Z" fill="black"/>
</svg>
