<svg width="50" height="50" viewBox="0 0 50 50" fill="none" xmlns="http://www.w3.org/2000/svg">
<path d="M28.7412 46.651L26.2638 49.1928C25.2148 50.2691 23.5186 50.2691 22.4808 49.1928L0.786743 26.9464C-0.262248 25.8702 -0.262248 24.1298 0.786743 23.065L22.4808 0.80719C23.5297 -0.269063 25.226 -0.269063 26.2638 0.80719L28.7412 3.34898C29.8014 4.43668 29.779 6.21136 28.6966 7.27616L15.2494 20.4202H47.3217C48.8059 20.4202 50 21.6453 50 23.1681V26.8319C50 28.3547 48.8059 29.5798 47.3217 29.5798H15.2494L28.6966 42.7238C29.7902 43.7886 29.8125 45.5633 28.7412 46.651Z" fill="#F5F5F5"/>
</svg>
