<svg width="9" height="25" viewBox="0 0 9 25" fill="none" xmlns="http://www.w3.org/2000/svg">
<path d="M4.5 8.98438C6.44336 8.98438 8.01562 10.5566 8.01562 12.5C8.01562 14.4434 6.44336 16.0156 4.5 16.0156C2.55664 16.0156 0.984375 14.4434 0.984375 12.5C0.984375 10.5566 2.55664 8.98438 4.5 8.98438ZM0.984375 3.90625C0.984375 5.84961 2.55664 7.42188 4.5 7.42188C6.44336 7.42188 8.01562 5.84961 8.01562 3.90625C8.01562 1.96289 6.44336 0.390625 4.5 0.390625C2.55664 0.390625 0.984375 1.96289 0.984375 3.90625ZM0.984375 21.0938C0.984375 23.0371 2.55664 24.6094 4.5 24.6094C6.44336 24.6094 8.01562 23.0371 8.01562 21.0938C8.01562 19.1504 6.44336 17.5781 4.5 17.5781C2.55664 17.5781 0.984375 19.1504 0.984375 21.0938Z" fill="white"/>
</svg>
