<svg width="86" height="47" viewBox="0 0 86 47" fill="none" xmlns="http://www.w3.org/2000/svg">
<path d="M13.2638 47C11.1175 47 9.12154 46.8084 7.27577 46.4253C5.43 46.0421 3.8847 45.4035 2.63988 44.5095C1.78138 43.8709 1.11605 43.062 0.643873 42.0829C0.214624 41.1037 0 40.1033 0 39.0815C0 37.8043 0.364862 36.6123 1.09458 35.5054C1.82431 34.3985 2.98328 33.6535 4.5715 33.2704C4.78612 33.2278 4.97929 33.2065 5.15099 33.2065C5.36561 33.1639 5.55877 33.1427 5.73047 33.1427C6.58897 33.1427 7.34016 33.3342 7.98403 33.7174C8.67083 34.1005 9.143 34.5476 9.40055 35.0584C9.22885 35.1861 8.99276 35.4203 8.69229 35.7609C8.39181 36.0589 8.19865 36.3143 8.1128 36.5272C7.46893 37.5915 7.14699 38.6558 7.14699 39.7201C7.14699 41.1676 7.70502 42.3596 8.82106 43.2962C9.98003 44.1902 11.4824 44.6372 13.3282 44.6372C15.0022 44.6372 16.569 44.2328 18.0285 43.4239C19.5308 42.5725 20.7327 41.4443 21.6341 40.0394C22.5785 38.6345 23.0507 37.0168 23.0507 35.1861C23.0507 33.8238 22.7287 32.3764 22.0849 30.8437C21.5268 29.524 20.7542 28.3533 19.7669 27.3315C18.8226 26.3098 17.9211 25.3519 17.0626 24.4579C15.9037 23.2233 14.7876 22.0312 13.7145 20.8818C12.6843 19.6898 11.8258 18.4126 11.139 17.0503C10.4951 15.6454 10.1732 14.0702 10.1732 12.3247C10.1732 10.6644 10.5166 9.04665 11.2034 7.47147C11.9331 5.89628 12.9633 4.55525 14.294 3.44837C15.7964 2.17119 17.5134 1.27717 19.445 0.766302C21.3766 0.255434 23.3941 0 25.4974 0C28.1158 0 30.1762 0.340579 31.6786 1.02174C33.2239 1.66032 34.3184 2.49049 34.9623 3.51223C35.6491 4.53397 35.9925 5.61956 35.9925 6.76902C35.9925 7.8759 35.735 8.94022 35.2199 9.96196C34.7477 10.9837 34.0824 11.8564 33.2239 12.5802C32.3654 13.2613 31.421 13.687 30.3908 13.8573C30.2191 13.8999 30.0474 13.9212 29.8757 13.9212C29.704 13.9212 29.5109 13.9212 29.2962 13.9212C28.3519 13.9212 27.5148 13.7083 26.7851 13.2826C26.0983 12.8569 25.7549 12.1332 25.7549 11.1114C25.7549 10.9837 25.7549 10.8347 25.7549 10.6644C25.7979 10.4941 25.8408 10.3238 25.8837 10.1535C26.6564 10.1535 27.4505 9.87681 28.266 9.32337C29.0816 8.76993 29.6182 8.15263 29.8757 7.47147C30.0903 6.91802 30.1977 6.40715 30.1977 5.93886C30.1977 4.7894 29.6611 3.89538 28.588 3.25679C27.5578 2.57563 26.3344 2.23505 24.9179 2.23505C23.2438 2.23505 21.7415 2.59692 20.4108 3.32065C19.123 4.00181 18.1143 4.91712 17.3846 6.06657C16.6549 7.17346 16.29 8.38677 16.29 9.70652C16.29 11.0263 16.6978 12.3034 17.5134 13.538C18.2001 14.5172 19.0586 15.5389 20.0888 16.6033C21.119 17.625 22.1707 18.6255 23.2438 19.6046C24.3169 20.5412 25.2398 21.4139 26.0125 22.2228C27.7724 23.9257 29.0387 25.6712 29.8113 27.4592C30.584 29.2047 30.9703 30.9289 30.9703 32.6318C30.9703 34.5901 30.4981 36.442 29.5538 38.1875C28.6524 39.8904 27.3861 41.4017 25.7549 42.7215C24.1238 44.0412 22.2351 45.0842 20.0888 45.8505C17.9426 46.6168 15.6676 47 13.2638 47Z" fill="#FF6610"/>
<path d="M41.6371 23.1168C41.6371 18.6893 42.56 14.7514 44.4058 11.303C46.2945 7.81204 48.9558 5.10869 52.3898 3.19294C55.8238 1.2346 59.7729 0.255435 64.2371 0.255435C69.9032 0.255435 74.6678 1.76676 78.5311 4.7894C82.3943 7.76947 84.884 11.8351 86 16.9864H72.4143C71.5987 15.2835 70.4612 13.9851 69.0017 13.091C67.5852 12.197 65.9326 11.75 64.0439 11.75C61.125 11.75 58.7856 12.793 57.0257 14.8791C55.3087 16.9226 54.4502 19.6685 54.4502 23.1168C54.4502 26.6078 55.3087 29.3963 57.0257 31.4823C58.7856 33.5258 61.125 34.5476 64.0439 34.5476C65.9326 34.5476 67.5852 34.1005 69.0017 33.2065C70.4612 32.3125 71.5987 31.014 72.4143 29.3111H86C84.884 34.4624 82.3943 38.5494 78.5311 41.572C74.6678 44.5521 69.9032 46.0421 64.2371 46.0421C59.7729 46.0421 55.8238 45.0842 52.3898 43.1685C48.9558 41.2101 46.2945 38.5068 44.4058 35.0584C42.56 31.5675 41.6371 27.587 41.6371 23.1168Z" fill="black"/>
</svg>
