<svg width="121" height="24" viewBox="0 0 121 24" fill="none" xmlns="http://www.w3.org/2000/svg">
<path d="M5.19205 18.48C4.39205 18.48 3.64805 18.408 2.96005 18.264C2.27205 18.12 1.69605 17.88 1.23205 17.544C0.912047 17.304 0.664047 17 0.488047 16.632C0.328047 16.264 0.248047 15.888 0.248047 15.504C0.248047 15.024 0.384047 14.576 0.656047 14.16C0.928047 13.744 1.36005 13.464 1.95205 13.32C2.03205 13.304 2.10405 13.296 2.16805 13.296C2.24805 13.28 2.32005 13.272 2.38405 13.272C2.70405 13.272 2.98405 13.344 3.22405 13.488C3.48005 13.632 3.65605 13.8 3.75205 13.992C3.68805 14.04 3.60005 14.128 3.48805 14.256C3.37605 14.368 3.30405 14.464 3.27205 14.544C3.03205 14.944 2.91205 15.344 2.91205 15.744C2.91205 16.288 3.12005 16.736 3.53605 17.088C3.96805 17.424 4.52805 17.592 5.21605 17.592C5.84005 17.592 6.42405 17.44 6.96805 17.136C7.52805 16.816 7.97605 16.392 8.31205 15.864C8.66405 15.336 8.84005 14.728 8.84005 14.04C8.84005 13.528 8.72005 12.984 8.48005 12.408C8.27205 11.912 7.98405 11.472 7.61605 11.088C7.26405 10.704 6.92805 10.344 6.60805 10.008C6.17605 9.54403 5.76005 9.09603 5.36005 8.66403C4.97605 8.21603 4.65605 7.73603 4.40005 7.22403C4.16005 6.69603 4.04005 6.10403 4.04005 5.44803C4.04005 4.82403 4.16805 4.21603 4.42405 3.62403C4.69605 3.03203 5.08005 2.52803 5.57605 2.11203C6.13605 1.63203 6.77605 1.29603 7.49605 1.10403C8.21605 0.912032 8.96805 0.816032 9.75205 0.816032C10.728 0.816032 11.496 0.944032 12.056 1.20003C12.632 1.44003 13.04 1.75203 13.28 2.13603C13.536 2.52003 13.664 2.92803 13.664 3.36003C13.664 3.77603 13.568 4.17603 13.376 4.56003C13.2 4.94403 12.952 5.27203 12.632 5.54403C12.312 5.80003 11.96 5.96003 11.576 6.02403C11.512 6.04003 11.448 6.04803 11.384 6.04803C11.32 6.04803 11.248 6.04803 11.168 6.04803C10.816 6.04803 10.504 5.96803 10.232 5.80803C9.97605 5.64803 9.84805 5.37603 9.84805 4.99203C9.84805 4.94403 9.84805 4.88803 9.84805 4.82403C9.86405 4.76003 9.88005 4.69603 9.89605 4.63203C10.184 4.63203 10.48 4.52803 10.784 4.32003C11.088 4.11203 11.288 3.88003 11.384 3.62403C11.464 3.41603 11.504 3.22403 11.504 3.04803C11.504 2.61603 11.304 2.28003 10.904 2.04003C10.52 1.78403 10.064 1.65603 9.53605 1.65603C8.91205 1.65603 8.35205 1.79203 7.85605 2.06403C7.37605 2.32003 7.00005 2.66403 6.72805 3.09603C6.45605 3.51203 6.32005 3.96803 6.32005 4.46403C6.32005 4.96003 6.47205 5.44003 6.77605 5.90403C7.03205 6.27203 7.35205 6.65603 7.73605 7.05603C8.12005 7.44003 8.51205 7.81603 8.91205 8.18403C9.31205 8.53603 9.65605 8.86403 9.94405 9.16803C10.6 9.80803 11.072 10.464 11.36 11.136C11.648 11.792 11.792 12.44 11.792 13.08C11.792 13.816 11.616 14.512 11.264 15.168C10.928 15.808 10.456 16.376 9.84805 16.872C9.24005 17.368 8.53605 17.76 7.73605 18.048C6.93605 18.336 6.08805 18.48 5.19205 18.48Z" fill="#FF6610"/>
<path d="M13.4825 18.144C13.0665 18.144 12.7145 17.944 12.4265 17.544C12.1545 17.128 12.0505 16.552 12.1145 15.816C12.1465 15.352 12.2665 14.76 12.4745 14.04C12.6825 13.32 12.9385 12.592 13.2425 11.856C13.5625 11.104 13.8825 10.472 14.2025 9.96003C14.6185 9.30403 15.0825 8.88003 15.5945 8.68803C16.1065 8.49603 16.7625 8.40003 17.5625 8.40003C17.6105 8.40003 17.6345 8.42403 17.6345 8.47203C17.6345 8.55203 17.5865 8.64003 17.4905 8.73603C17.2665 8.92803 17.0105 9.26403 16.7225 9.74403C16.4505 10.208 16.1865 10.728 15.9305 11.304C15.6745 11.88 15.4505 12.432 15.2585 12.96C15.2265 13.072 15.1545 13.288 15.0425 13.608C14.9305 13.928 14.8265 14.28 14.7305 14.664C14.6345 15.032 14.5865 15.376 14.5865 15.696C14.5865 15.952 14.6345 16.168 14.7305 16.344C14.8265 16.504 14.9865 16.584 15.2105 16.584C15.5145 16.568 15.8425 16.384 16.1945 16.032C16.5465 15.664 16.8985 15.2 17.2505 14.64C17.6025 14.08 17.9385 13.512 18.2585 12.936C18.5785 12.344 18.8585 11.816 19.0985 11.352C19.3545 10.872 19.5385 10.536 19.6505 10.344C19.8905 9.96003 20.1465 9.63203 20.4185 9.36003C20.6905 9.07203 21.0025 8.92803 21.3545 8.92803C21.4825 8.92803 21.6745 8.93603 21.9305 8.95203C22.1865 8.95203 22.4265 8.95203 22.6505 8.95203C22.8905 8.95203 23.0505 8.94403 23.1305 8.92803C23.0665 8.96003 22.9705 9.03203 22.8425 9.14403C22.7145 9.24003 22.6185 9.35203 22.5545 9.48003C22.2985 9.97603 22.0425 10.496 21.7865 11.04C21.5305 11.584 21.2745 12.224 21.0185 12.96C20.9865 13.072 20.9065 13.288 20.7785 13.608C20.6665 13.928 20.5625 14.28 20.4665 14.664C20.3705 15.032 20.3225 15.376 20.3225 15.696C20.3225 16.08 20.3865 16.352 20.5145 16.512C20.6585 16.672 20.8345 16.752 21.0425 16.752C21.3305 16.752 21.6505 16.64 22.0025 16.416C22.3705 16.176 22.6985 15.888 22.9865 15.552C23.4825 14.976 23.8745 14.376 24.1625 13.752C24.4665 13.112 24.6745 12.632 24.7865 12.312C24.7545 12.136 24.7225 11.944 24.6905 11.736C24.6745 11.528 24.6665 11.32 24.6665 11.112C24.6665 10.824 24.6905 10.528 24.7385 10.224C24.8025 9.92003 24.8905 9.62403 25.0025 9.33603C25.2105 8.82403 25.5065 8.51203 25.8905 8.40003C25.9545 8.38403 26.0105 8.37603 26.0585 8.37603C26.1225 8.36003 26.1865 8.35203 26.2505 8.35203C26.5545 8.35203 26.7545 8.45603 26.8505 8.66403C26.9625 8.87203 27.0185 9.12003 27.0185 9.40803C27.0185 9.69603 26.9865 9.98403 26.9225 10.272C26.8585 10.544 26.7945 10.76 26.7305 10.92C26.6185 11.224 26.4905 11.52 26.3465 11.808C26.2025 12.08 26.0665 12.352 25.9385 12.624C25.9385 12.72 25.9625 12.856 26.0105 13.032C26.1865 13.8 26.5785 14.184 27.1865 14.184C27.5545 14.184 27.9385 14.008 28.3385 13.656C28.5625 13.464 28.7625 13.224 28.9385 12.936C29.1305 12.632 29.2985 12.352 29.4425 12.096C29.5225 11.968 29.5705 11.936 29.5865 12C29.6185 12.064 29.6345 12.168 29.6345 12.312C29.6345 12.472 29.6185 12.656 29.5865 12.864C29.5545 13.072 29.4985 13.24 29.4185 13.368C29.1785 13.784 28.9305 14.104 28.6745 14.328C28.4185 14.536 28.1305 14.704 27.8105 14.832C27.6825 14.88 27.5465 14.92 27.4025 14.952C27.2585 14.984 27.1225 15 26.9945 15C26.6105 15 26.2585 14.896 25.9385 14.688C25.6345 14.464 25.4105 14.12 25.2665 13.656L25.1945 13.416C25.0345 13.688 24.8505 14 24.6425 14.352C24.4345 14.704 24.2345 15.024 24.0425 15.312C23.8665 15.6 23.7305 15.808 23.6345 15.936C23.0905 16.624 22.4985 17.168 21.8585 17.568C21.2345 17.968 20.5705 18.168 19.8665 18.168C19.7865 18.168 19.7065 18.168 19.6265 18.168C19.5465 18.168 19.4665 18.16 19.3865 18.144C18.7785 18.064 18.3705 17.792 18.1625 17.328C17.9545 16.848 17.8505 16.368 17.8505 15.888C17.8505 15.712 17.8585 15.544 17.8745 15.384C17.9065 15.208 17.9305 15.064 17.9465 14.952C17.7065 15.288 17.4505 15.6 17.1785 15.888C16.9225 16.176 16.6585 16.464 16.3865 16.752C15.7785 17.36 15.2345 17.744 14.7545 17.904C14.2745 18.064 13.8505 18.144 13.4825 18.144Z" fill="#FF6610"/>
<path d="M33.8767 6.48003C33.4607 6.33603 33.2527 6.06403 33.2527 5.66403C33.2527 5.29603 33.3967 4.92003 33.6847 4.53603C33.9887 4.13603 34.3167 3.88003 34.6687 3.76803C34.7487 3.73603 34.8127 3.72003 34.8607 3.72003C34.9247 3.72003 34.9887 3.72003 35.0527 3.72003C35.3247 3.72003 35.5487 3.80003 35.7247 3.96003C35.9007 4.12003 35.9887 4.30403 35.9887 4.51203C35.9887 4.80003 35.8367 5.04003 35.5327 5.23203C35.2927 5.20003 35.0607 5.25603 34.8367 5.40003C34.6127 5.54403 34.4127 5.72003 34.2367 5.92803C34.0767 6.13603 33.9567 6.32003 33.8767 6.48003ZM29.7487 18.144C29.5407 18.144 29.3407 18.096 29.1487 18C28.9567 17.92 28.7967 17.752 28.6687 17.496C28.4927 17.112 28.4047 16.656 28.4047 16.128C28.4047 15.552 28.4927 14.912 28.6687 14.208C28.8447 13.488 29.0767 12.752 29.3647 12C29.4767 11.728 29.6207 11.392 29.7967 10.992C29.9727 10.592 30.1807 10.192 30.4207 9.79203C30.6607 9.39203 30.9327 9.06403 31.2367 8.80803C31.5567 8.53603 31.9007 8.40003 32.2687 8.40003C32.4447 8.40003 32.6927 8.40803 33.0127 8.42403C33.3327 8.44003 33.5647 8.44003 33.7087 8.42403C33.6127 8.48803 33.5007 8.61603 33.3727 8.80803C33.2447 9.00003 33.1247 9.20003 33.0127 9.40803C32.9007 9.60003 32.8127 9.75203 32.7487 9.86403C32.3327 10.696 31.9407 11.52 31.5727 12.336C31.2047 13.152 30.9247 13.936 30.7327 14.688C30.7007 14.816 30.6767 14.944 30.6607 15.072C30.6447 15.2 30.6367 15.32 30.6367 15.432C30.6367 15.896 30.7887 16.128 31.0927 16.128C31.2207 16.128 31.3567 16.096 31.5007 16.032C31.6607 15.952 31.8447 15.832 32.0527 15.672C32.4207 15.384 32.7407 15.056 33.0127 14.688C33.3327 14.272 33.6367 13.832 33.9247 13.368C34.2127 12.888 34.4607 12.448 34.6687 12.048C34.7487 11.92 34.8047 11.856 34.8367 11.856C34.9327 11.856 34.9807 11.992 34.9807 12.264C34.9807 12.392 34.9567 12.544 34.9087 12.72C34.8767 12.88 34.8207 13.032 34.7407 13.176C34.5167 13.56 34.2527 13.984 33.9487 14.448C33.6447 14.912 33.3327 15.36 33.0127 15.792C32.7887 16.096 32.4927 16.432 32.1247 16.8C31.7567 17.168 31.3647 17.488 30.9487 17.76C30.5327 18.016 30.1327 18.144 29.7487 18.144Z" fill="#FF6610"/>
<path d="M31.1599 23.952C30.3279 23.952 29.7359 23.752 29.3839 23.352C29.0319 22.952 28.8559 22.52 28.8559 22.056C28.8559 21.768 28.9199 21.496 29.0479 21.24C29.1599 20.984 29.3199 20.8 29.5279 20.688C29.6879 20.608 29.8319 20.568 29.9599 20.568C30.1359 20.568 30.2959 20.624 30.4399 20.736C30.5839 20.848 30.6559 21 30.6559 21.192C30.6559 21.24 30.6559 21.28 30.6559 21.312C30.6399 21.36 30.6239 21.408 30.6079 21.456C30.5119 21.536 30.4239 21.656 30.3439 21.816C30.2479 21.976 30.1839 22.136 30.1519 22.296C30.1359 22.328 30.1279 22.368 30.1279 22.416C30.1279 22.464 30.1279 22.504 30.1279 22.536C30.1279 22.744 30.1919 22.92 30.3199 23.064C30.4479 23.208 30.5919 23.28 30.7519 23.28C31.1679 23.28 31.5679 23.128 31.9519 22.824C32.3359 22.52 32.6879 22.136 33.0079 21.672C33.3439 21.224 33.6399 20.768 33.8959 20.304C34.1519 19.84 34.3599 19.44 34.5199 19.104C35.2559 17.616 35.9519 16.064 36.6079 14.448C37.2799 12.832 37.9119 11.256 38.5039 9.72003H37.8319C37.5439 9.72003 37.2399 9.76803 36.9199 9.86403C36.6159 9.96003 36.3759 10.168 36.1999 10.488C35.9439 10.984 35.6639 11.512 35.3599 12.072C35.0719 12.632 34.7439 13.192 34.3759 13.752C34.3119 13.864 34.2559 13.92 34.2079 13.92C34.1279 13.92 34.0879 13.8 34.0879 13.56C34.0879 13.272 34.1359 13.032 34.2319 12.84C34.4719 12.44 34.7039 12 34.9279 11.52C35.1679 11.024 35.3839 10.552 35.5759 10.104C35.7679 9.65603 35.9119 9.28803 36.0079 9.00003C36.0879 8.77603 36.1679 8.62403 36.2479 8.54403C36.3439 8.46403 36.5359 8.44003 36.8239 8.47203L38.9359 8.64003C39.1279 8.12803 39.3119 7.63203 39.4879 7.15203C39.6799 6.65603 39.8639 6.18403 40.0399 5.73603C40.4079 4.80803 40.8319 3.92003 41.3119 3.07203C41.7919 2.22403 42.3839 1.53603 43.0879 1.00803C43.8079 0.464032 44.6799 0.192032 45.7039 0.192032C46.2959 0.176032 46.7999 0.264032 47.2159 0.456033C47.6319 0.648032 47.9359 1.00803 48.1279 1.53603C48.1759 1.68003 48.1999 1.84803 48.1999 2.04003C48.1999 2.36003 48.1199 2.68803 47.9599 3.02403C47.7999 3.36003 47.5839 3.59203 47.3119 3.72003C47.2319 3.76803 47.1439 3.80003 47.0479 3.81603C46.9519 3.83203 46.8639 3.84003 46.7839 3.84003C46.5759 3.84003 46.3919 3.78403 46.2319 3.67203C46.0719 3.56003 45.9919 3.40003 45.9919 3.19203C45.9919 3.09603 46.0159 2.99203 46.0639 2.88003C46.3519 2.67203 46.5519 2.37603 46.6639 1.99203C46.6799 1.92803 46.6879 1.87203 46.6879 1.82403C46.7039 1.77603 46.7119 1.72803 46.7119 1.68003C46.7119 1.36003 46.5919 1.12803 46.3519 0.984031C46.2559 0.904032 46.1519 0.856032 46.0399 0.840032C45.9279 0.808032 45.8159 0.792032 45.7039 0.792032C45.1759 0.792032 44.7039 1.04003 44.2879 1.53603C43.7759 2.12803 43.3039 2.85603 42.8719 3.72003C42.4559 4.58403 42.0799 5.46403 41.7439 6.36003C41.4239 7.25603 41.1359 8.04803 40.8799 8.73603C41.5359 8.73603 42.1679 8.72803 42.7759 8.71203C43.3999 8.68003 43.9359 8.64003 44.3839 8.59203C44.8319 8.52803 45.1039 8.46403 45.1999 8.40003C45.0879 8.70403 44.8959 8.94403 44.6239 9.12003C44.3679 9.29603 43.9759 9.42403 43.4479 9.50403C43.0799 9.56803 42.6399 9.61603 42.1279 9.64803C41.6159 9.66403 41.0879 9.68003 40.5439 9.69603L39.8479 11.712C39.6239 12.352 39.3519 13.096 39.0319 13.944C38.7279 14.792 38.3759 15.68 37.9759 16.608C37.5759 17.52 37.1279 18.408 36.6319 19.272C36.1519 20.136 35.6239 20.92 35.0479 21.624C34.4879 22.344 33.8799 22.912 33.2239 23.328C32.5839 23.744 31.8959 23.952 31.1599 23.952Z" fill="#FF6610"/>
<path d="M44.2522 18.144C43.7882 18.144 43.4362 17.96 43.1962 17.592C43.0842 17.416 43.0042 17.208 42.9562 16.968C42.9082 16.728 42.8842 16.48 42.8842 16.224C42.8842 15.968 42.9002 15.712 42.9322 15.456C42.9642 15.184 43.0042 14.92 43.0522 14.664C43.1322 14.248 43.2202 13.872 43.3162 13.536C43.4282 13.184 43.5402 12.848 43.6522 12.528V12.504C43.5242 12.744 43.3642 13.008 43.1722 13.296C42.9802 13.568 42.8442 13.768 42.7642 13.896C42.6522 14.072 42.5642 14.16 42.5002 14.16C42.4362 14.16 42.4042 14.088 42.4042 13.944C42.4042 13.624 42.5002 13.272 42.6922 12.888C42.8202 12.632 42.9962 12.304 43.2202 11.904C43.4442 11.488 43.6762 11.04 43.9162 10.56C44.1562 10.08 44.3642 9.61603 44.5402 9.16803H42.9322C42.8522 9.16803 42.8362 9.10403 42.8842 8.97603C42.9322 8.84803 43.0042 8.72803 43.1002 8.61603C43.1962 8.48803 43.2682 8.42403 43.3162 8.42403H45.1402C45.3162 8.00803 45.5162 7.56003 45.7402 7.08003C45.9802 6.60003 46.2442 6.15203 46.5322 5.73603C46.8362 5.30403 47.1642 4.95203 47.5162 4.68003C47.8682 4.40803 48.2442 4.27203 48.6442 4.27203C48.8202 4.27203 49.0362 4.27203 49.2922 4.27203C49.5642 4.27203 49.7322 4.26403 49.7962 4.24803C49.4602 4.47203 49.0682 4.92003 48.6202 5.59203C48.1722 6.24803 47.6842 7.19203 47.1562 8.42403H49.5802C49.6282 8.42403 49.6122 8.48803 49.5322 8.61603C49.4522 8.72803 49.3482 8.84803 49.2202 8.97603C49.1082 9.10403 48.9962 9.16803 48.8842 9.16803H46.8202C46.6122 9.69603 46.3802 10.272 46.1242 10.896C45.8842 11.52 45.6602 12.136 45.4522 12.744C45.2602 13.336 45.1162 13.88 45.0202 14.376C44.9562 14.68 44.9242 14.96 44.9242 15.216C44.9242 15.824 45.1162 16.128 45.5002 16.128C45.7562 16.128 46.0602 16 46.4122 15.744C46.7642 15.488 47.1162 15.136 47.4682 14.688C47.7882 14.272 48.0922 13.824 48.3802 13.344C48.6842 12.864 48.9402 12.424 49.1482 12.024C49.2122 11.912 49.2682 11.856 49.3162 11.856C49.4122 11.856 49.4602 11.984 49.4602 12.24C49.4602 12.368 49.4362 12.52 49.3882 12.696C49.3562 12.856 49.2922 13.016 49.1962 13.176C48.9722 13.56 48.7082 13.984 48.4042 14.448C48.1002 14.896 47.7882 15.344 47.4682 15.792C47.2442 16.08 46.9482 16.408 46.5802 16.776C46.2282 17.144 45.8442 17.464 45.4282 17.736C45.0282 18.008 44.6362 18.144 44.2522 18.144Z" fill="#FF6610"/>
<path d="M52.768 9.50403C52.768 7.84003 53.112 6.36003 53.8 5.06403C54.504 3.75203 55.496 2.73603 56.776 2.01603C58.056 1.28003 59.528 0.912032 61.192 0.912032C63.304 0.912032 65.0801 1.48003 66.5201 2.61603C67.9601 3.73603 68.888 5.26403 69.304 7.20003H64.24C63.936 6.56003 63.512 6.07203 62.968 5.73603C62.44 5.40003 61.824 5.23203 61.12 5.23203C60.032 5.23203 59.16 5.62403 58.504 6.40803C57.864 7.17603 57.544 8.20803 57.544 9.50403C57.544 10.816 57.864 11.864 58.504 12.648C59.16 13.416 60.032 13.8 61.12 13.8C61.824 13.8 62.44 13.632 62.968 13.296C63.512 12.96 63.936 12.472 64.24 11.832H69.304C68.888 13.768 67.9601 15.304 66.5201 16.44C65.0801 17.56 63.304 18.12 61.192 18.12C59.528 18.12 58.056 17.76 56.776 17.04C55.496 16.304 54.504 15.288 53.8 13.992C53.112 12.68 52.768 11.184 52.768 9.50403Z" fill="#F5F5F5"/>
<path d="M86.6755 1.08003V18H81.9715V11.208H76.2355V18H71.5315V1.08003H76.2355V7.44003H81.9715V1.08003H86.6755Z" fill="#F5F5F5"/>
<path d="M100.071 15.24H94.0715L93.1595 18H88.2155L94.3835 1.08003H99.8075L105.951 18H100.983L100.071 15.24ZM98.8955 11.64L97.0715 6.16803L95.2715 11.64H98.8955Z" fill="#F5F5F5"/>
<path d="M120.229 1.08003V4.82403H115.717V18H111.013V4.82403H106.549V1.08003H120.229Z" fill="#F5F5F5"/>
</svg>
