<svg width="26" height="25" viewBox="0 0 26 25" fill="none" xmlns="http://www.w3.org/2000/svg">
<path d="M25.6445 21.6162L20.5816 16.748C20.3531 16.5283 20.0434 16.4062 19.7184 16.4062H18.8906C20.2922 14.6826 21.125 12.5146 21.125 10.1562C21.125 4.5459 16.3973 0 10.5625 0C4.72773 0 0 4.5459 0 10.1562C0 15.7666 4.72773 20.3125 10.5625 20.3125C13.0152 20.3125 15.2699 19.5117 17.0625 18.1641V18.96C17.0625 19.2725 17.1895 19.5703 17.418 19.79L22.4809 24.6582C22.9582 25.1172 23.7301 25.1172 24.2023 24.6582L25.6395 23.2764C26.1168 22.8174 26.1168 22.0752 25.6445 21.6162ZM10.5625 16.4062C6.97227 16.4062 4.0625 13.6133 4.0625 10.1562C4.0625 6.7041 6.96719 3.90625 10.5625 3.90625C14.1527 3.90625 17.0625 6.69922 17.0625 10.1562C17.0625 13.6084 14.1578 16.4062 10.5625 16.4062Z" fill="#F5F5F5"/>
</svg>
